<svg id="Layer_1" data-name="Layer 1" xmlns="http://www.w3.org/2000/svg" xmlns:xlink="http://www.w3.org/1999/xlink" viewBox="0 0 24 24"><defs><linearGradient id="linear-gradient" x1="-478.21" y1="499.59" x2="-477.21" y2="499.59" gradientTransform="matrix(24, 0, 0, -20.03, 11477, 10018.27)" gradientUnits="userSpaceOnUse"><stop offset="0" stop-color="#fff" stop-opacity="0.2"/><stop offset="1" stop-color="#fff" stop-opacity="0"/></linearGradient></defs><title>gift</title><rect id="canvas_background" data-name="canvas background" x="-1" y="-1" width="582" height="402" style="fill:none"/><g id="Bow"><path id="svg_2" data-name="svg 2" d="M23.5,5.5c0-1.54-1.14-3-3.5-3s-3.91,1.88-5.14,3.67h0A3.26,3.26,0,0,0,10.43,4.9a3.32,3.32,0,0,0-1.12,1h0A6.52,6.52,0,0,0,4,2.5C1.64,2.5.5,4,.5,5.5s1,2.78,1,3.5-1,2-1,3.5,1.14,3,3.5,3a4.8,4.8,0,0,0,3.18-1.28A16.57,16.57,0,0,0,5.5,20.5a10.1,10.1,0,0,1,3-2l2,3s.13-6.62,1.5-8c1.38,1.38,1.5,8,1.5,8l2-3a10.1,10.1,0,0,1,3,2,14.65,14.65,0,0,0-1.39-5.78h0A5.35,5.35,0,0,0,20,15.5c2.36,0,3.5-1.46,3.5-3s-1-2.78-1-3.5S23.5,7,23.5,5.5Z" style="fill:#9e140e"/><path id="svg_3" data-name="svg 3" d="M.58,11.77a3.63,3.63,0,0,0-.08.73c0,1.54,1.14,3,3.5,3a4.66,4.66,0,0,0,3-1.12L8.5,12.5a5,5,0,0,1-7.92-.73Z" style="opacity:0.10000000149011612;isolation:isolate"/><path id="svg_4" data-name="svg 4" d="M23.42,6.23a3.63,3.63,0,0,0,.08-.73c0-1.54-1.14-3-3.5-3a4.66,4.66,0,0,0-3,1.12L15.5,5.5a5,5,0,0,1,7.92.73Z" style="fill:#fff;opacity:0.20000000298023224;isolation:isolate"/><path id="svg_5" data-name="svg 5" d="M9.12,5.62a8,8,0,0,0-2-2.11c-3.7.07-4.45,1.11-4.58,1.66a.61.61,0,0,0,.14.58c1,1.1,6.32.73,6.32.73Z" style="fill:#fff;opacity:0.20000000298023224;isolation:isolate"/><path id="svg_6" data-name="svg 6" d="M15,12.62a8,8,0,0,0,2,2.11c3.7-.07,4.45-1.11,4.58-1.66a.61.61,0,0,0-.14-.58c-1-1.11-6.32-.75-6.32-.75Z" style="opacity:0.10000000149011612;isolation:isolate"/><path id="svg_7" data-name="svg 7" d="M23,9a3.35,3.35,0,0,1,.32-.92A6.26,6.26,0,0,0,24,5.5C24,3.81,22.75,2,20,2c-2.3,0-3.85,1.53-5.15,3.32a3.76,3.76,0,0,0-5.3-.42,1.54,1.54,0,0,0-.19.17A6.75,6.75,0,0,0,4,2C1.25,2,0,3.81,0,5.5A6.26,6.26,0,0,0,.68,8.08,3.35,3.35,0,0,1,1,9a3.35,3.35,0,0,1-.32.92A6.26,6.26,0,0,0,0,12.5C0,14.19,1.25,16,4,16a4.91,4.91,0,0,0,2.06-.46A14.59,14.59,0,0,0,5,20.5a.5.5,0,0,0,.85.35,9.61,9.61,0,0,1,2.47-1.72l1.76,2.65a.5.5,0,0,0,.42.22h.14a.49.49,0,0,0,.36-.47,23.29,23.29,0,0,1,1-7.07,23.38,23.38,0,0,1,1,7.07.49.49,0,0,0,.36.47h.14a.5.5,0,0,0,.42-.22l1.76-2.65a9.61,9.61,0,0,1,2.47,1.72.5.5,0,0,0,.71,0A.48.48,0,0,0,19,20.5a14.32,14.32,0,0,0-.94-4.8A6.39,6.39,0,0,0,20,16c2.75,0,4-1.81,4-3.5a6.26,6.26,0,0,0-.68-2.58A3.35,3.35,0,0,1,23,9ZM12,5c1.88,0,3,1.5,3,4s-1.12,4-3,4S9,11.5,9,9,10.12,5,12,5ZM1,12.5a5.55,5.55,0,0,1,.6-2.18A3.61,3.61,0,0,0,2,9a3.61,3.61,0,0,0-.4-1.32A5.55,5.55,0,0,1,1,5.5C1,4.35,1.79,3,4,3A5.94,5.94,0,0,1,8.72,5.91V6C5.84,6.17,3.15,5.86,3,5.34a.52.52,0,1,0-1,.32c.39,1.15,2.86,1.39,4.92,1.39H8.25A7,7,0,0,0,8,8.81L5.66,8a.52.52,0,1,0-.32,1l2,.68-2.12,1.4a.5.5,0,0,0-.2.68.49.49,0,0,0,.67.2l.08-.05,2.34-1.56a5.39,5.39,0,0,0,.48,1.47,11.06,11.06,0,0,1-1.74,2h0A4.33,4.33,0,0,1,4,15C1.79,15,1,13.65,1,12.5ZM10.06,20,8.92,18.22a.49.49,0,0,0-.6-.19,10.83,10.83,0,0,0-2.23,1.3A16.94,16.94,0,0,1,7.6,14.52a11,11,0,0,0,1.6-1.8,3.6,3.6,0,0,0,2,1.17A19.88,19.88,0,0,0,10.06,20Zm7.87-.6A10.85,10.85,0,0,0,15.69,18a.49.49,0,0,0-.6.19l-1.15,1.72a19.8,19.8,0,0,0-1.09-6A3.65,3.65,0,0,0,14.6,13a7.84,7.84,0,0,0,2.11,2.11A14.84,14.84,0,0,1,17.93,19.35ZM20,15c-1.95,0-3.42-.89-4.75-2.86v-.09c2.86-.19,5.55.09,5.73.62a.51.51,0,0,0,.47.34h.16a.5.5,0,0,0,.31-.63h0c-.48-1.41-4.1-1.44-6.26-1.32A6.86,6.86,0,0,0,16,9.2l2.36.77h.16a.51.51,0,1,0,.16-1l-2-.67,2.16-1.44A.5.5,0,0,0,18.28,6l-2.4,1.62a5.46,5.46,0,0,0-.45-1.42C16.62,4.53,18,3,20,3c2.21,0,3,1.35,3,2.5a5.55,5.55,0,0,1-.6,2.18A3.61,3.61,0,0,0,22,9a3.61,3.61,0,0,0,.4,1.32A5.55,5.55,0,0,1,23,12.5C23,13.65,22.21,15,20,15Z" style="fill:#303c42"/><path id="svg_8" data-name="svg 8" d="M12.5,7.5c0,1-.56,1.5-1.25,1.5S10,8.51,10,7.5,10.56,6,11.25,6,12.5,6.49,12.5,7.5Z" style="fill:#fff;opacity:0.20000000298023224;isolation:isolate"/><path id="svg_9" data-name="svg 9" d="M23,9a3.35,3.35,0,0,1,.32-.92A6.26,6.26,0,0,0,24,5.54C24,3.85,22.75,2,20,2c-2.29,0-3.84,1.52-5.14,3.3A3.63,3.63,0,0,0,12,4,3.68,3.68,0,0,0,9.36,5.12,6.76,6.76,0,0,0,4,2C1.25,2,0,3.85,0,5.54A6.26,6.26,0,0,0,.68,8.12,3.35,3.35,0,0,1,1,9,3.35,3.35,0,0,1,.68,10,6.26,6.26,0,0,0,0,12.54C0,14.23,1.25,16,4,16a4.92,4.92,0,0,0,2.07-.46,14.84,14.84,0,0,0-1.07,5,.49.49,0,0,0,.51.49.48.48,0,0,0,.34-.14,9.61,9.61,0,0,1,2.47-1.72l1.76,2.65a.5.5,0,0,0,.42.22h.14a.49.49,0,0,0,.36-.47,23.36,23.36,0,0,1,1-7.08,23.59,23.59,0,0,1,1,7.08.5.5,0,0,0,.92.27l1.76-2.65a9.61,9.61,0,0,1,2.47,1.72.5.5,0,0,0,.71,0,.52.52,0,0,0,.14-.36,14.32,14.32,0,0,0-.94-4.8A6.39,6.39,0,0,0,20,16c2.75,0,4-1.81,4-3.5A6.26,6.26,0,0,0,23.32,10,3.35,3.35,0,0,1,23,9Z" style="fill:url(#linear-gradient)"/></g></svg>